<svg xmlns="http://www.w3.org/2000/svg" xmlns:xlink="http://www.w3.org/1999/xlink" viewBox="0 0 640.8 642.96"><defs><style>.cls-1{fill:none;}.cls-2{clip-path:url(#clip-path);}.cls-3{fill:#ffffff;}</style><clipPath id="clip-path"><rect class="cls-1" width="640.8" height="642.96"/></clipPath></defs><g id="图层_2" data-name="图层 2"><g id="图层_1-2" data-name="图层 1"><g class="cls-2"><path class="cls-3" d="M620,318.56a20.58,20.58,0,0,1-20.5-19,280.06,280.06,0,0,0-11.82-61.32C543,94.42,388.8,11.07,244.15,52.37a20.59,20.59,0,1,1-11.3-39.6C398.87-34.65,575.74,61.05,627,226a323.3,323.3,0,0,1,13.55,70.33,20.59,20.59,0,0,1-18.91,22.13c-.55,0-1.09.06-1.64.06ZM128.66,111.08a20.58,20.58,0,0,1-13.19-36.39,318.32,318.32,0,0,1,51.29-34.85A20.58,20.58,0,0,1,186.46,76a277.14,277.14,0,0,0-44.66,30.35,20.55,20.55,0,0,1-13.14,4.75ZM320.93,642C184.18,642,57.15,553.74,14.46,416.43A319.44,319.44,0,0,1,55.22,141.31a20.58,20.58,0,0,1,34.09,23.07A278.42,278.42,0,0,0,53.77,404.2c45.77,147.19,202.8,229.8,350,184a279.6,279.6,0,0,0,67.61-31.34,20.58,20.58,0,0,1,22.15,34.69A322,322,0,0,1,320.93,642Z"/></g><path class="cls-3" d="M246.48,453.89a20.57,20.57,0,0,1-20.58-20.58V209.12a20.58,20.58,0,0,1,31.57-17.41L434.83,303.83a20.59,20.59,0,0,1,0,34.81L257.47,450.72a20.64,20.64,0,0,1-11,3.17Zm20.58-207.4V396L385.3,321.24Z"/><path class="cls-3" d="M528.57,641.88a20.58,20.58,0,0,1-16.2-7.88l-88.9-113.38a20.6,20.6,0,0,1,14.11-33.18L571.7,473.81a20.58,20.58,0,0,1,21.48,27.38L548,628.2a20.65,20.65,0,0,1-16.08,13.43,22.84,22.84,0,0,1-3.31.25ZM478.93,524.62l42.79,54.57,21.77-61.14Z"/></g></g></svg>