<?xml version="1.0" standalone="no"?><!DOCTYPE svg PUBLIC "-//W3C//DTD SVG 1.1//EN" "http://www.w3.org/Graphics/SVG/1.1/DTD/svg11.dtd"><svg t="1661070098393" class="icon" viewBox="0 0 1024 1024" version="1.1" xmlns="http://www.w3.org/2000/svg" p-id="998" xmlns:xlink="http://www.w3.org/1999/xlink" width="200" height="200"><defs><style type="text/css">@font-face { font-family: feedback-iconfont; src: url("//at.alicdn.com/t/font_1031158_u69w8yhxdu.woff2?t=1630033759944") format("woff2"), url("//at.alicdn.com/t/font_1031158_u69w8yhxdu.woff?t=1630033759944") format("woff"), url("//at.alicdn.com/t/font_1031158_u69w8yhxdu.ttf?t=1630033759944") format("truetype"); }
</style></defs><path d="M448 224a32 32 0 0 1 3.072 63.850667L448 288h-149.333333a53.333333 53.333333 0 0 0-53.226667 49.834667L245.333333 341.333333v426.666667a53.333333 53.333333 0 0 0 49.834667 53.226667L298.666667 821.333333h426.666666a53.333333 53.333333 0 0 0 53.226667-49.834666L778.666667 768v-149.333333a32 32 0 0 1 63.850666-3.072L842.666667 618.666667v149.333333a117.333333 117.333333 0 0 1-112.618667 117.248L725.333333 885.333333H298.666667a117.333333 117.333333 0 0 1-117.248-112.618666L181.333333 768V341.333333a117.333333 117.333333 0 0 1 112.618667-117.248L298.666667 224h149.333333z" fill="#ffffff" p-id="999"></path><path d="M733.866667 224h-102.4a108.8 108.8 0 0 0-108.8 108.8v102.4a108.8 108.8 0 0 0 108.8 108.8h102.4a108.8 108.8 0 0 0 108.8-108.8v-102.4a108.8 108.8 0 0 0-108.8-108.8z m-102.4 64h102.4c24.746667 0 44.8 20.053333 44.8 44.8v102.4a44.8 44.8 0 0 1-44.8 44.8h-102.4a44.8 44.8 0 0 1-44.8-44.8v-102.4c0-24.746667 20.053333-44.8 44.8-44.8z" fill="#ffffff" p-id="1000"></path></svg>