<?xml version="1.0" encoding="utf-8"?>
<!-- Svg Vector Icons : http://www.onlinewebfonts.com/icon -->
<!DOCTYPE svg PUBLIC "-//W3C//DTD SVG 1.1//EN" "http://www.w3.org/Graphics/SVG/1.1/DTD/svg11.dtd">
<svg version="1.1" xmlns="http://www.w3.org/2000/svg" xmlns:xlink="http://www.w3.org/1999/xlink" x="0px" y="0px" viewBox="0 0 256 256" enable-background="new 0 0 256 256" xml:space="preserve">
<metadata> Svg Vector Icons : http://www.onlinewebfonts.com/icon </metadata>
<g><g><g><g><path fill="#ffffff" d="M235.2,87.2c-7.2-13.1-17.2-23.4-30-30.9c-12.8-7.5-27.1-13-42.9-16.5c-15.8-3.5-33.5-5.3-53-5.3c-14.7,0-28.5,2.7-41.5,8.2S44.3,54.8,36.1,62.8c-8.2,8-14.5,16.2-19.2,24.5c-4.6,8.3-6.9,15.7-6.9,22c0,13.1,3.2,23.7,9.6,31.7c6.4,8,15.7,12,27.8,12c12.8,0,22.2,1.8,28.1,5.5s8.9,10.2,8.9,19.4c0,12.5,4.2,22.9,12.5,31.2c8.3,8.3,18.7,12.5,31.2,12.5c38,0,67.2-8.6,87.5-25.9c20.3-17.3,30.5-37.7,30.5-61.4C246,116,242.4,100.3,235.2,87.2z M61.6,123.4c-3,3-6.7,4.6-11,4.6c-4.3,0-8-1.5-11-4.6c-3-3-4.6-6.7-4.6-11c0-4.3,1.5-8,4.6-11s6.7-4.6,11-4.6c4.3,0,8,1.5,11,4.6c3,3,4.6,6.7,4.6,11C66.1,116.7,64.6,120.4,61.6,123.4z M93.7,90.6c-4.3,0-7.9-1.5-10.8-4.6c-2.9-3-4.3-6.7-4.3-11s1.4-8,4.3-11c2.9-3,6.5-4.6,10.8-4.6c4.3,0,8,1.5,11,4.6s4.6,6.7,4.6,11s-1.5,8-4.6,11C101.7,89,98,90.6,93.7,90.6z M141.2,191.1c-3.7,3.7-8.1,5.5-13.2,5.5c-5.1,0-9.5-1.8-13.2-5.5c-3.7-3.7-5.5-8.1-5.5-13.2c0-5.1,1.8-9.5,5.5-13.2c3.7-3.7,8.1-5.5,13.2-5.5c5.1,0,9.5,1.8,13.2,5.5c3.7,3.7,5.5,8.1,5.5,13.2S144.9,187.4,141.2,191.1z M154.6,86c-3,3-6.7,4.6-11,4.6c-4.3,0-8-1.5-11-4.6c-3-3-4.6-6.7-4.6-11c0-4.3,1.5-8,4.6-11c3-3,6.7-4.6,11-4.6c4.3,0,8,1.5,11,4.6c3,3,4.6,6.7,4.6,11C159.2,79.3,157.7,83,154.6,86z M204,111c-3,3-6.7,4.6-11,4.6s-8-1.5-11-4.6c-3-3-4.6-6.7-4.6-11c0-4.3,1.5-8,4.6-11c3-3,6.7-4.6,11-4.6s8,1.5,11,4.6c3,3,4.6,6.7,4.6,11C208.6,104.2,207.1,107.9,204,111z"/></g></g><g></g><g></g><g></g><g></g><g></g><g></g><g></g><g></g><g></g><g></g><g></g><g></g><g></g><g></g><g></g></g></g>
</svg>
