<?xml version="1.0" standalone="no"?><!DOCTYPE svg PUBLIC "-//W3C//DTD SVG 1.1//EN" "http://www.w3.org/Graphics/SVG/1.1/DTD/svg11.dtd"><svg t="1667027810666" class="icon" viewBox="0 0 1024 1024" version="1.1" xmlns="http://www.w3.org/2000/svg" p-id="4065" xmlns:xlink="http://www.w3.org/1999/xlink" width="64" height="64"><path d="M598.4 536.106667c-28.373333 0-56.533333-10.666667-78.08-32.213334-20.906667-20.906667-32.213333-48.64-32.213333-78.08s11.52-57.386667 32.213333-78.08l128-128a110.464 110.464 0 0 1 156.16 0c20.906667 20.906667 32.213333 48.64 32.213333 78.08 0 29.653333-11.52 57.386667-32.213333 78.08l-128 128a110.144 110.144 0 0 1-78.08 32.213334z m-48-62.293334a67.733333 67.733333 0 0 0 95.786667 0l128-128c12.8-12.8 19.84-29.866667 19.84-48s-7.04-35.2-19.84-48a67.733333 67.733333 0 0 0-95.786667 0l-128 128c-12.8 12.8-19.84 29.866667-19.84 48s7.04 35.2 19.84 48zM297.6 836.693333c-28.373333 0-56.533333-10.666667-78.08-32.213333-20.906667-20.693333-32.213333-48.64-32.213333-78.08s11.52-57.386667 32.213333-78.08l128-128a110.464 110.464 0 0 1 156.16 0c20.906667 20.906667 32.213333 48.64 32.213333 78.08 0 29.653333-11.52 57.386667-32.213333 78.08l-128 128c-21.546667 21.333333-49.706667 32.213333-78.08 32.213333z m-48-62.506666a67.733333 67.733333 0 0 0 95.786667 0l128-128c12.8-12.8 19.84-29.866667 19.84-48a67.733333 67.733333 0 0 0-115.626667-48l-128 128c-12.8 12.8-19.84 29.866667-19.84 48s7.253333 35.2 19.84 48z" p-id="4066" fill="#ffffff"></path><path d="M336.213333 708.906667c-5.546667 0-10.88-2.133333-15.146666-6.186667a21.248 21.248 0 0 1 0-30.08l330.453333-330.24a21.248 21.248 0 1 1 30.08 30.08L351.36 702.72c-4.266667 4.053333-9.6 6.186667-15.146667 6.186667z" p-id="4067" fill="#ffffff"></path></svg>