<?xml version="1.0" standalone="no"?><!DOCTYPE svg PUBLIC "-//W3C//DTD SVG 1.1//EN" "http://www.w3.org/Graphics/SVG/1.1/DTD/svg11.dtd"><svg t="1667028053845" class="icon" viewBox="0 0 1024 1024" version="1.1" xmlns="http://www.w3.org/2000/svg" p-id="11060" xmlns:xlink="http://www.w3.org/1999/xlink" width="64" height="64"><path d="M348.5696 633.1904H262.4c-58.88 0-106.752-47.872-106.752-106.752V255.5392c0-58.88 47.872-106.752 106.752-106.752h270.8992c58.88 0 106.752 47.872 106.752 106.752V343.04c0 5.632-4.608 10.24-10.24 10.24s-10.24-4.608-10.24-10.24V255.5392c0-47.5648-38.7072-86.272-86.272-86.272H262.4c-47.5648 0-86.272 38.7072-86.272 86.272v270.8992c0 47.5648 38.7072 86.272 86.272 86.272h86.1696c5.632 0 10.24 4.608 10.24 10.24s-4.608 10.24-10.24 10.24z" p-id="11061" fill="#ffffff"></path><path d="M763.5456 863.4368H492.6464c-58.88 0-106.752-47.872-106.752-106.752V485.7856c0-58.88 47.872-106.752 106.752-106.752h270.8992c58.88 0 106.752 47.872 106.752 106.752v270.8992c0 58.88-47.872 106.752-106.752 106.752zM492.6464 399.5136c-47.5648 0-86.272 38.7072-86.272 86.272v270.8992c0 47.5648 38.7072 86.272 86.272 86.272h270.8992c47.5648 0 86.272-38.7072 86.272-86.272V485.7856c0-47.5648-38.7072-86.272-86.272-86.272H492.6464z" p-id="11062" fill="#ffffff"></path></svg>