<?xml version="1.0" standalone="no"?><!DOCTYPE svg PUBLIC "-//W3C//DTD SVG 1.1//EN" "http://www.w3.org/Graphics/SVG/1.1/DTD/svg11.dtd"><svg t="1666412094330" class="icon" viewBox="0 0 1038 1024" version="1.1" xmlns="http://www.w3.org/2000/svg" p-id="4052" xmlns:xlink="http://www.w3.org/1999/xlink" width="64.875" height="64"><path d="M519.310222 85.361778c235.633778 0 426.666667 191.032889 426.666667 426.666666 0 235.648-191.032889 426.666667-426.666667 426.666667-235.648 0-426.666667-191.018667-426.666666-426.666667 0-235.633778 191.018667-426.666667 426.666666-426.666666z m0 56.888889c-204.231111 0-369.777778 165.546667-369.777778 369.777777s165.546667 369.777778 369.777778 369.777778 369.777778-165.546667 369.777778-369.777778-165.546667-369.777778-369.777778-369.777777z m-35.555555 135.111111a28.444444 28.444444 0 0 1 28.444444 28.444444v170.666667h213.333333a28.444444 28.444444 0 0 1 28.359112 26.325333l0.085333 2.133334a28.444444 28.444444 0 0 1-26.325333 28.359111l-2.133334 0.071111h-227.555555a42.666667 42.666667 0 0 1-42.666667-42.666667v-184.888889a28.444444 28.444444 0 0 1 28.444444-28.444444z" fill="#ffffff" p-id="4053"></path></svg>