<?xml version="1.0" standalone="no"?><!DOCTYPE svg PUBLIC "-//W3C//DTD SVG 1.1//EN" "http://www.w3.org/Graphics/SVG/1.1/DTD/svg11.dtd"><svg t="1661072230027" class="icon" viewBox="0 0 1024 1024" version="1.1" xmlns="http://www.w3.org/2000/svg" p-id="12425" xmlns:xlink="http://www.w3.org/1999/xlink" width="200" height="200"><defs><style type="text/css">@font-face { font-family: feedback-iconfont; src: url("//at.alicdn.com/t/font_1031158_u69w8yhxdu.woff2?t=1630033759944") format("woff2"), url("//at.alicdn.com/t/font_1031158_u69w8yhxdu.woff?t=1630033759944") format("woff"), url("//at.alicdn.com/t/font_1031158_u69w8yhxdu.ttf?t=1630033759944") format("truetype"); }
</style></defs><path d="M725.333333 896H298.666667c-25.6 0-42.666667-17.066667-42.666667-42.666667v-302.933333l-12.8 8.533333c-17.066667 17.066667-42.666667 17.066667-59.733333 0l-119.466667-119.466666c-17.066667-17.066667-17.066667-42.666667 0-59.733334L315.733333 128H384c0 46.933333 55.466667 85.333333 128 85.333333s128-38.4 128-85.333333h72.533333l251.733334 251.733333c17.066667 17.066667 17.066667 42.666667 0 59.733334l-119.466667 119.466666c-17.066667 17.066667-42.666667 17.066667-59.733333 0l-17.066667-8.533333V853.333333c0 25.6-17.066667 42.666667-42.666667 42.666667m149.333334-486.4l-183.466667-183.466667c-17.066667 12.8-34.133333 29.866667-51.2 38.4-38.4 21.333333-81.066667 34.133333-128 34.133334-68.266667 0-128-25.6-174.933333-72.533334L153.6 409.6 213.333333 469.333333l85.333334-85.333333h42.666666v426.666667h341.333334V384h42.666666l85.333334 85.333333 64-59.733333z" fill="#ffffff" p-id="12426"></path></svg>